{"title":"Arthur Christmas 2011 TS XViD-DTRG","uid":6899641,"size":1154467608,"categoryP":"video","categoryS":"movies","magnet":"?xt=urn:btih:a5093e5152612b928ae200f7e6662ce2d3b3527e&amp;dn=Arthur+Christmas+2011+TS+XViD-DTRG&amp;tr=udp%3A%2F%2Ftracker.openbittorrent.com%3A80&amp;tr=udp%3A%2F%2Fopen.demonii.com%3A1337&amp;tr=udp%3A%2F%2Ftracker.coppersurfer.tk%3A6969&amp;tr=udp%3A%2F%2Fexodus.desync.com%3A6969","seeders":0,"leechers":0,"uploader":".BONE.","files":4,"time":1324341817,"description":"\nFormat : AVI\nFormat/Info : Audio Video Interleave\nFile size : 1.06 GiB\nDuration : 1h 31mn\nOverall bit rate : 1 657 Kbps\nWriting library : VirtualDub build 32842/release\n\nVideo\nID : 0\nFormat : MPEG-4 Visual\nFormat profile : Advanced Simple@L5\nFormat settings, BVOP : 1\nFormat settings, QPel : No\nFormat settings, GMC : No warppoints\nFormat settings, Matrix : Default (H.263)\nMuxing mode : Packed bitstream\nCodec ID : XVID\nCodec ID/Hint : XviD\nDuration : 1h 31mn\nBit rate : 1 264 Kbps\nWidth : 730 pixels\nHeight : 304 pixels\nDisplay aspect ratio : 2.40:1\nFrame rate : 24.000 fps\nColor space : YUV\nChroma subsampling : 4:2:0\nBit depth : 8 bits\nScan type : Progressive\nCompression mode : Lossy\nBits/(Pixel*Frame) : 0.237\nStream size : 826 MiB (76%)\nWriting library : XviD 64\n\nAudio\nID : 1\nFormat : AC-3\nFormat/Info : Audio Coding 3\nMode extension : CM (complete main)\nCodec ID : 2000\nDuration : 1h 31mn\nBit rate mode : Constant\nBit rate : 384 Kbps\nChannel(s) : 6 channels\nChannel positions : Front: L C R, Side: L R, LFE\nSampling rate : 48.0 KHz\nBit depth : 16 bits\nCompression mode : Lossy\nStream size : 251 MiB (23%)\nAlignment : Aligned on interleaves\nInterleave, duration : 42 ms (1.00 video frame)\nInterleave, preload duration : 512 ms\n\n &lt;a href=&quot;\nhttp://www.imdb.com/title/tt1430607/&quot; rel=&quot;nofollow&quot; target=&quot;_NEW&quot;&gt;\nhttp://www.imdb.com/title/tt1430607/&lt;/a&gt;\n\n\nStoryline\n\nArthur Christmas reveals the incredible, never-before seen answer to every child's question: 'So how does Santa deliver all those presents in one night?' The answer: Santa's exhilarating, ultra-high-tech operation hidden beneath the North Pole. But at the center of the film is a story about a family in a state of comic dysfunction and an unlikely hero, Arthur, with an urgent mission that must be completed before Christmas morning dawns.\n &lt;a href=&quot;\nhttp://img513.imageshack.us/img513/5560/vlcsnap2011121817h38m08.png&quot; rel=&quot;nofollow&quot; target=&quot;_NEW&quot;&gt;\nhttp://img513.imageshack.us/img513/5560/vlcsnap2011121817h38m08.png&lt;/a&gt;\n &lt;a href=&quot;\nhttp://img440.imageshack.us/img440/4473/vlcsnap2011121817h36m44.png&quot; rel=&quot;nofollow&quot; target=&quot;_NEW&quot;&gt;\nhttp://img440.imageshack.us/img440/4473/vlcsnap2011121817h36m44.png&lt;/a&gt;\n &lt;a href=&quot;\nhttp://img52.imageshack.us/img52/2933/vlcsnap2011121817h38m37.png&quot; rel=&quot;nofollow&quot; target=&quot;_NEW&quot;&gt;\nhttp://img52.imageshack.us/img52/2933/vlcsnap2011121817h38m37.png&lt;/a&gt;\n &lt;a href=&quot;\nhttp://img685.imageshack.us/img685/6342/vlcsnap2011121817h37m12.png&quot; rel=&quot;nofollow&quot; target=&quot;_NEW&quot;&gt;\nhttp://img685.imageshack.us/img685/6342/vlcsnap2011121817h37m12.png&lt;/a&gt;\n\n\nSource Used\n\n\n\n\niLLUMiNATi 720p ...........Thanks\n\n\n\nSource already great ran a couple of filters sample included\n","torrent":{"xt":"urn:btih:a5093e5152612b928ae200f7e6662ce2d3b3527e","amp;dn":"Arthur+Christmas+2011+TS+XViD-DTRG","amp;tr":["udp%3A%2F%2Ftracker.openbittorrent.com%3A80","udp%3A%2F%2Fopen.demonii.com%3A1337","udp%3A%2F%2Ftracker.coppersurfer.tk%3A6969","udp%3A%2F%2Fexodus.desync.com%3A6969"],"infoHash":"a5093e5152612b928ae200f7e6662ce2d3b3527e","infoHashBuffer":{"type":"Buffer","data":[165,9,62,81,82,97,43,146,138,226,0,247,230,102,44,226,211,179,82,126]},"announce":[],"urlList":[]}}